<svg width="18" height="18" viewBox="0 0 18 18" fill="none" xmlns="http://www.w3.org/2000/svg">
<g clip-path="url(#clip0_4433_16126)">
<path fill-rule="evenodd" clip-rule="evenodd" d="M8.95697 0.9375H9.04303C10.7743 0.937491 12.1311 0.937483 13.1897 1.07981C14.2733 1.22549 15.1283 1.5295 15.7994 2.2006C16.4705 2.87171 16.7745 3.72673 16.9202 4.81028C17.0625 5.8689 17.0625 7.22567 17.0625 8.95697V9.04303C17.0625 10.7743 17.0625 12.1311 16.9202 13.1897C16.7745 14.2733 16.4705 15.1283 15.7994 15.7994C15.1283 16.4705 14.2733 16.7745 13.1897 16.9202C12.1311 17.0625 10.7743 17.0625 9.04303 17.0625H8.95697C7.22567 17.0625 5.8689 17.0625 4.81028 16.9202C3.72673 16.7745 2.87171 16.4705 2.2006 15.7994C1.5295 15.1283 1.22549 14.2733 1.07981 13.1897C0.937483 12.1311 0.937491 10.7743 0.9375 9.04303V8.95697C0.937491 7.22567 0.937483 5.86889 1.07981 4.81028C1.22549 3.72673 1.5295 2.87171 2.2006 2.2006C2.87171 1.5295 3.72673 1.22549 4.81028 1.07981C5.86889 0.937483 7.22567 0.937491 8.95697 0.9375ZM4.96018 2.19478C4.00138 2.32369 3.42334 2.56886 2.9961 2.9961C2.56886 3.42334 2.32369 4.00138 2.19478 4.96018C2.06369 5.93517 2.0625 7.21633 2.0625 9C2.0625 10.7837 2.06369 12.0648 2.19478 13.0398C2.32369 13.9986 2.56886 14.5767 2.9961 15.0039C3.42334 15.4311 4.00138 15.6763 4.96018 15.8052C5.93517 15.9363 7.21633 15.9375 9 15.9375C10.7837 15.9375 12.0648 15.9363 13.0398 15.8052C13.9986 15.6763 14.5767 15.4311 15.0039 15.0039C15.4311 14.5767 15.6763 13.9986 15.8052 13.0398C15.9363 12.0648 15.9375 10.7837 15.9375 9C15.9375 7.21633 15.9363 5.93517 15.8052 4.96018C15.6763 4.00138 15.4311 3.42334 15.0039 2.9961C14.5767 2.56886 13.9986 2.32369 13.0398 2.19478C12.0648 2.06369 10.7837 2.0625 9 2.0625C7.21633 2.0625 5.93517 2.06369 4.96018 2.19478ZM7.88793 4.84267C8.11289 5.05692 8.12158 5.41297 7.90733 5.63793L5.76447 7.88793C5.6583 7.99941 5.51109 8.0625 5.35714 8.0625C5.2032 8.0625 5.05598 7.99941 4.94982 7.88793L4.09267 6.98793C3.87842 6.76297 3.88711 6.40692 4.11207 6.19267C4.33703 5.97842 4.69308 5.98711 4.90733 6.21207L5.35714 6.68438L7.09267 4.86207C7.30692 4.63711 7.66297 4.62842 7.88793 4.84267ZM9.1875 6.75C9.1875 6.43934 9.43934 6.1875 9.75 6.1875H13.5C13.8107 6.1875 14.0625 6.43934 14.0625 6.75C14.0625 7.06066 13.8107 7.3125 13.5 7.3125H9.75C9.43934 7.3125 9.1875 7.06066 9.1875 6.75ZM7.88793 10.0927C8.11289 10.3069 8.12158 10.663 7.90733 10.8879L5.76447 13.1379C5.6583 13.2494 5.51109 13.3125 5.35714 13.3125C5.2032 13.3125 5.05598 13.2494 4.94982 13.1379L4.09267 12.2379C3.87842 12.013 3.88711 11.6569 4.11207 11.4427C4.33703 11.2284 4.69308 11.2371 4.90733 11.4621L5.35714 11.9344L7.09267 10.1121C7.30692 9.88711 7.66297 9.87842 7.88793 10.0927ZM9.1875 12C9.1875 11.6893 9.43934 11.4375 9.75 11.4375H13.5C13.8107 11.4375 14.0625 11.6893 14.0625 12C14.0625 12.3107 13.8107 12.5625 13.5 12.5625H9.75C9.43934 12.5625 9.1875 12.3107 9.1875 12Z" fill="white"/>
</g>
<defs>
<clipPath id="clip0_4433_16126">
<rect width="18" height="18" fill="white"/>
</clipPath>
</defs>
</svg>
