<svg width="7" height="17" viewBox="0 0 7 17" fill="none" xmlns="http://www.w3.org/2000/svg">
<mask id="path-1-inside-1_5122_608" fill="white">
<path d="M1.78946 -2.73398e-05L4.61789 -2.72502e-05C4.715 0.00340043 4.80698 0.0443856 4.87446 0.114293C4.94195 0.184201 4.97966 0.277574 4.97966 0.374739C4.97966 0.471905 4.94195 0.565277 4.87446 0.635185C4.80698 0.705093 4.715 0.746079 4.61789 0.749506H4.343L4.97852 5.18572L6.34544 7.23677C6.38672 7.29815 6.40858 7.37052 6.4082 7.44448L6.40731 14.8099C6.40728 15.1745 6.26242 15.5242 6.00459 15.782C5.74675 16.0399 5.39706 16.1847 5.03243 16.1848L1.37492 16.1848C1.01029 16.1847 0.660604 16.0399 0.402771 15.782C0.144937 15.5242 7.43331e-05 15.1745 4.2723e-05 14.8099L0.000484085 7.44581C9.72847e-05 7.37184 0.0219633 7.29947 0.0632404 7.23809L1.43017 5.18704L2.06568 0.750832H1.79079C1.69369 0.747405 1.6017 0.706419 1.53422 0.636511C1.46673 0.566604 1.42902 0.473231 1.42902 0.376066C1.42902 0.2789 1.46673 0.185527 1.53422 0.11562C1.6017 0.0457117 1.69369 0.00472611 1.79079 0.00129843L1.78946 -2.73398e-05ZM0.750459 14.8099C0.750484 14.9756 0.816331 15.1345 0.933518 15.2517C1.0507 15.3689 1.20964 15.4348 1.37536 15.4348L5.03199 15.4348C5.19772 15.4348 5.35665 15.3689 5.47384 15.2517C5.59103 15.1345 5.65687 14.9756 5.6569 14.8099L5.6569 14.185L0.75046 14.185L0.750459 14.8099ZM0.75046 13.4346L5.6569 13.4346L5.6569 9.23523L0.75046 9.23523V13.4346ZM2.1607 5.37752C2.15294 5.4329 2.13269 5.4858 2.10148 5.5322L0.752227 7.55762L0.75046 8.48481H5.6569L5.65513 7.55762L4.30411 5.53043C4.2729 5.48403 4.25265 5.43114 4.24489 5.37575L3.58375 0.747739L2.82007 0.747739L2.1607 5.37752Z"/>
</mask>
<path d="M1.78946 -2.73398e-05L4.61789 -2.72502e-05C4.715 0.00340043 4.80698 0.0443856 4.87446 0.114293C4.94195 0.184201 4.97966 0.277574 4.97966 0.374739C4.97966 0.471905 4.94195 0.565277 4.87446 0.635185C4.80698 0.705093 4.715 0.746079 4.61789 0.749506H4.343L4.97852 5.18572L6.34544 7.23677C6.38672 7.29815 6.40858 7.37052 6.4082 7.44448L6.40731 14.8099C6.40728 15.1745 6.26242 15.5242 6.00459 15.782C5.74675 16.0399 5.39706 16.1847 5.03243 16.1848L1.37492 16.1848C1.01029 16.1847 0.660604 16.0399 0.402771 15.782C0.144937 15.5242 7.43331e-05 15.1745 4.2723e-05 14.8099L0.000484085 7.44581C9.72847e-05 7.37184 0.0219633 7.29947 0.0632404 7.23809L1.43017 5.18704L2.06568 0.750832H1.79079C1.69369 0.747405 1.6017 0.706419 1.53422 0.636511C1.46673 0.566604 1.42902 0.473231 1.42902 0.376066C1.42902 0.2789 1.46673 0.185527 1.53422 0.11562C1.6017 0.0457117 1.69369 0.00472611 1.79079 0.00129843L1.78946 -2.73398e-05ZM0.750459 14.8099C0.750484 14.9756 0.816331 15.1345 0.933518 15.2517C1.0507 15.3689 1.20964 15.4348 1.37536 15.4348L5.03199 15.4348C5.19772 15.4348 5.35665 15.3689 5.47384 15.2517C5.59103 15.1345 5.65687 14.9756 5.6569 14.8099L5.6569 14.185L0.75046 14.185L0.750459 14.8099ZM0.75046 13.4346L5.6569 13.4346L5.6569 9.23523L0.75046 9.23523V13.4346ZM2.1607 5.37752C2.15294 5.4329 2.13269 5.4858 2.10148 5.5322L0.752227 7.55762L0.75046 8.48481H5.6569L5.65513 7.55762L4.30411 5.53043C4.2729 5.48403 4.25265 5.43114 4.24489 5.37575L3.58375 0.747739L2.82007 0.747739L2.1607 5.37752Z" fill="black"/>
<path d="M1.78946 -2.73398e-05L1.08236 0.707079L-0.624748 -1.00003L1.78947 -1.00003L1.78946 -2.73398e-05ZM4.61789 -2.72502e-05L4.61789 -1.00003L4.63554 -1.00003L4.65317 -0.999405L4.61789 -2.72502e-05ZM4.61789 0.749506L4.65317 1.74888L4.63554 1.74951L4.61789 1.74951L4.61789 0.749506ZM4.343 0.749506L3.35311 0.891314L3.18954 -0.250493L4.343 -0.250493L4.343 0.749506ZM4.97852 5.18572L4.14638 5.74029L4.02075 5.55178L3.98862 5.32752L4.97852 5.18572ZM6.34544 7.23677L5.51563 7.79483L5.51331 7.79134L6.34544 7.23677ZM6.4082 7.44448L5.40818 7.44436L5.40821 7.43925L6.4082 7.44448ZM6.40731 14.8099L5.40731 14.8098L5.40731 14.8098L6.40731 14.8099ZM6.00459 15.782L6.71169 16.4891L6.00459 15.782ZM5.03243 16.1848L5.03252 17.1848L5.03243 17.1848L5.03243 16.1848ZM1.37492 16.1848L1.37492 17.1848L1.37484 17.1848L1.37492 16.1848ZM4.2723e-05 14.8099L-0.999957 14.81L-0.999957 14.8098L4.2723e-05 14.8099ZM0.000484085 7.44581L1.00048 7.44058V7.44587L0.000484085 7.44581ZM0.0632404 7.23809L0.895381 7.79268L0.893042 7.79615L0.0632404 7.23809ZM1.43017 5.18704L2.42006 5.32885L2.38794 5.55311L2.2623 5.74162L1.43017 5.18704ZM2.06568 0.750832L2.06568 -0.249168L3.21914 -0.249168L3.05557 0.89264L2.06568 0.750832ZM1.79079 0.750832L1.79079 1.75083H1.77315L1.75551 1.75021L1.79079 0.750832ZM1.79079 0.00129843L2.4979 -0.705808L4.12329 0.919587L1.82607 1.00068L1.79079 0.00129843ZM0.750459 14.8099L-0.24954 14.81L-0.249541 14.8099L0.750459 14.8099ZM1.37536 15.4348L1.37537 16.4348H1.37521L1.37536 15.4348ZM5.03199 15.4348L5.03214 16.4348L5.03199 16.4348L5.03199 15.4348ZM5.47384 15.2517L6.18095 15.9588L5.47384 15.2517ZM5.6569 14.8099L6.6569 14.8099L6.6569 14.81L5.6569 14.8099ZM5.6569 14.185L5.6569 13.185L6.6569 13.185L6.6569 14.185L5.6569 14.185ZM0.75046 14.185L-0.24954 14.185L-0.24954 13.185H0.75046V14.185ZM0.75046 13.4346V14.4346H-0.24954V13.4346H0.75046ZM5.6569 13.4346L6.6569 13.4346L6.6569 14.4346L5.6569 14.4346L5.6569 13.4346ZM5.6569 9.23523L5.6569 8.23523H6.6569V9.23523L5.6569 9.23523ZM0.75046 9.23523H-0.24954V8.23523H0.75046V9.23523ZM2.1607 5.37752L1.17036 5.23884L1.17069 5.23652L2.1607 5.37752ZM2.10148 5.5322L1.26922 4.97779L1.27174 4.97405L2.10148 5.5322ZM0.752227 7.55762L-0.24777 7.55571L-0.247196 7.25417L-0.0800184 7.00321L0.752227 7.55762ZM0.75046 8.48481V9.48481H-0.251448L-0.249538 8.48291L0.75046 8.48481ZM5.6569 8.48481L6.6569 8.48291L6.65881 9.48481L5.6569 9.48481V8.48481ZM5.65513 7.55762L6.48726 7.00304L6.65455 7.25406L6.65513 7.55571L5.65513 7.55762ZM4.30411 5.53043L5.13386 4.97228L5.13625 4.97586L4.30411 5.53043ZM4.24489 5.37575L5.23485 5.23433L5.23523 5.23707L4.24489 5.37575ZM3.58375 0.747739L3.58375 -0.252261L4.45104 -0.252262L4.5737 0.606318L3.58375 0.747739ZM2.82007 0.747739L1.83006 0.60674L1.9524 -0.252261L2.82007 -0.252261L2.82007 0.747739ZM1.78946 -2.73398e-05L1.78947 -1.00003L4.61789 -1.00003L4.61789 -2.72502e-05L4.61789 0.999973L1.78946 0.999973L1.78946 -2.73398e-05ZM4.61789 -2.72502e-05L4.65317 -0.999405C5.00922 -0.986837 5.3465 -0.836558 5.59394 -0.580229L4.87446 0.114293L4.15499 0.808816C4.26747 0.925329 4.42077 0.993638 4.58262 0.999351L4.61789 -2.72502e-05ZM4.87446 0.114293L5.59394 -0.580229C5.84138 -0.323901 5.97966 0.0184651 5.97966 0.374739L4.97966 0.374739L3.97966 0.37474C3.97966 0.536682 4.04252 0.692304 4.15499 0.808816L4.87446 0.114293ZM4.97966 0.374739L5.97966 0.374739C5.97966 0.731014 5.84138 1.07338 5.59394 1.32971L4.87446 0.635185L4.15499 -0.0593374C4.04252 0.0571755 3.97966 0.212796 3.97966 0.37474L4.97966 0.374739ZM4.87446 0.635185L5.59394 1.32971C5.3465 1.58603 5.00923 1.73632 4.65317 1.74888L4.61789 0.749506L4.58262 -0.249871C4.42077 -0.244158 4.26746 -0.175847 4.15499 -0.0593374L4.87446 0.635185ZM4.61789 0.749506L4.61789 1.74951H4.343L4.343 0.749506L4.343 -0.250493H4.61789L4.61789 0.749506ZM4.343 0.749506L5.3329 0.607699L5.96841 5.04391L4.97852 5.18572L3.98862 5.32752L3.35311 0.891314L4.343 0.749506ZM4.97852 5.18572L5.81065 4.63114L7.17758 6.68219L6.34544 7.23677L5.51331 7.79134L4.14638 5.74029L4.97852 5.18572ZM6.34544 7.23677L7.17524 6.67871C7.32846 6.90654 7.40962 7.17517 7.40818 7.44971L6.4082 7.44448L5.40821 7.43925C5.40755 7.56587 5.44498 7.68976 5.51564 7.79483L6.34544 7.23677ZM6.4082 7.44448L7.4082 7.4446L7.40731 14.81L6.40731 14.8099L5.40731 14.8098L5.4082 7.44436L6.4082 7.44448ZM6.40731 14.8099L7.40731 14.81C7.40726 15.4398 7.15704 16.0438 6.71169 16.4891L6.00459 15.782L5.29748 15.0749C5.3678 15.0046 5.4073 14.9092 5.40731 14.8098L6.40731 14.8099ZM6.00459 15.782L6.71169 16.4891C6.26634 16.9345 5.66234 17.1847 5.03252 17.1848L5.03243 16.1848L5.03235 15.1848C5.13179 15.1848 5.22716 15.1452 5.29748 15.0749L6.00459 15.782ZM5.03243 16.1848L5.03243 17.1848L1.37492 17.1848L1.37492 16.1848L1.37492 15.1848L5.03243 15.1848L5.03243 16.1848ZM1.37492 16.1848L1.37484 17.1848C0.74502 17.1847 0.141013 16.9345 -0.304336 16.4891L0.402771 15.782L1.10988 15.0749C1.1802 15.1452 1.27556 15.1848 1.37501 15.1848L1.37492 16.1848ZM0.402771 15.782L-0.304336 16.4891C-0.749685 16.0438 -0.999902 15.4398 -0.999957 14.81L4.2723e-05 14.8099L1.00004 14.8098C1.00005 14.9092 1.03956 15.0046 1.10988 15.0749L0.402771 15.782ZM4.2723e-05 14.8099L-0.999957 14.8098L-0.999516 7.44575L0.000484085 7.44581L1.00048 7.44587L1.00004 14.8099L4.2723e-05 14.8099ZM0.000484085 7.44581L-0.999502 7.45104C-1.00094 7.17649 -0.919774 6.90785 -0.766561 6.68004L0.0632404 7.23809L0.893042 7.79615C0.9637 7.69109 1.00113 7.5672 1.00047 7.44058L0.000484085 7.44581ZM0.0632404 7.23809L-0.768893 6.68352L0.598033 4.63247L1.43017 5.18704L2.2623 5.74162L0.895374 7.79267L0.0632404 7.23809ZM1.43017 5.18704L0.440273 5.04524L1.07578 0.609025L2.06568 0.750832L3.05557 0.89264L2.42006 5.32885L1.43017 5.18704ZM2.06568 0.750832L2.06568 1.75083H1.79079L1.79079 0.750832L1.79079 -0.249168H2.06568L2.06568 0.750832ZM1.79079 0.750832L1.75551 1.75021C1.39946 1.73764 1.06219 1.58736 0.814747 1.33103L1.53422 0.636511L2.25369 -0.0580112C2.14122 -0.174524 1.98791 -0.242832 1.82607 -0.248546L1.79079 0.750832ZM1.53422 0.636511L0.814747 1.33103C0.567308 1.07471 0.42902 0.732341 0.42902 0.376066L1.42902 0.376066L2.42902 0.376065C2.42902 0.214122 2.36616 0.0585013 2.25369 -0.0580112L1.53422 0.636511ZM1.42902 0.376066L0.42902 0.376066C0.42902 0.0197906 0.567308 -0.322574 0.814747 -0.578903L1.53422 0.11562L2.25369 0.810142C2.36616 0.69363 2.42902 0.538009 2.42902 0.376065L1.42902 0.376066ZM1.53422 0.11562L0.814747 -0.578903C1.06218 -0.835228 1.39946 -0.985511 1.75551 -0.998079L1.79079 0.00129843L1.82607 1.00068C1.98791 0.994963 2.14122 0.926652 2.25369 0.810142L1.53422 0.11562ZM1.79079 0.00129843L1.08368 0.708405L1.08236 0.707079L1.78946 -2.73398e-05L2.49657 -0.707134L2.4979 -0.705808L1.79079 0.00129843ZM0.750459 14.8099L1.75046 14.8097C1.75044 14.7103 1.71094 14.6149 1.64062 14.5446L0.933518 15.2517L0.226411 15.9588C-0.0782739 15.6542 -0.249475 15.2409 -0.24954 14.81L0.750459 14.8099ZM0.933518 15.2517L1.64062 14.5446C1.57031 14.4743 1.47495 14.4348 1.37552 14.4348L1.37536 15.4348L1.37521 16.4348C0.94432 16.4347 0.531096 16.2635 0.226411 15.9588L0.933518 15.2517ZM1.37536 15.4348L1.37536 14.4348L5.03199 14.4348L5.03199 15.4348L5.03199 16.4348L1.37537 16.4348L1.37536 15.4348ZM5.03199 15.4348L5.03184 14.4348C4.9324 14.4348 4.83704 14.4743 4.76673 14.5446L5.47384 15.2517L6.18095 15.9588C5.87626 16.2635 5.46303 16.4347 5.03214 16.4348L5.03199 15.4348ZM5.47384 15.2517L4.76673 14.5446C4.69642 14.6149 4.65691 14.7103 4.6569 14.8097L5.6569 14.8099L6.6569 14.81C6.65683 15.2409 6.48563 15.6542 6.18095 15.9588L5.47384 15.2517ZM5.6569 14.8099L4.6569 14.8099L4.6569 14.185L5.6569 14.185L6.6569 14.185L6.6569 14.8099L5.6569 14.8099ZM5.6569 14.185L5.6569 15.185L0.75046 15.185V14.185V13.185L5.6569 13.185L5.6569 14.185ZM0.75046 14.185L1.75046 14.185L1.75046 14.8099L0.750459 14.8099L-0.249541 14.8099L-0.24954 14.185L0.75046 14.185ZM0.75046 13.4346V12.4346L5.6569 12.4346L5.6569 13.4346L5.6569 14.4346L0.75046 14.4346V13.4346ZM5.6569 13.4346L4.6569 13.4346L4.6569 9.23523L5.6569 9.23523L6.6569 9.23523L6.6569 13.4346L5.6569 13.4346ZM5.6569 9.23523L5.6569 10.2352L0.75046 10.2352L0.75046 9.23523V8.23523L5.6569 8.23523L5.6569 9.23523ZM0.75046 9.23523H1.75046V13.4346H0.75046H-0.24954V9.23523H0.75046ZM2.1607 5.37752L3.15103 5.5162C3.12225 5.72177 3.04708 5.91811 2.93122 6.09035L2.10148 5.5322L1.27174 4.97405C1.2183 5.05349 1.18364 5.14403 1.17036 5.23884L2.1607 5.37752ZM2.10148 5.5322L2.93372 6.08661L1.58447 8.11203L0.752227 7.55762L-0.0800184 7.00321L1.26923 4.97779L2.10148 5.5322ZM0.752227 7.55762L1.75223 7.55952L1.75046 8.48672L0.75046 8.48481L-0.249538 8.48291L-0.24777 7.55571L0.752227 7.55762ZM0.75046 8.48481V7.48481H5.6569V8.48481V9.48481H0.75046V8.48481ZM5.6569 8.48481L4.6569 8.48672L4.65513 7.55953L5.65513 7.55762L6.65513 7.55571L6.6569 8.48291L5.6569 8.48481ZM5.65513 7.55762L4.823 8.11219L3.47198 6.08501L4.30411 5.53043L5.13625 4.97586L6.48726 7.00304L5.65513 7.55762ZM4.30411 5.53043L3.47437 6.08858C3.35851 5.91635 3.28334 5.72001 3.25456 5.51443L4.24489 5.37575L5.23523 5.23707C5.22195 5.14226 5.18729 5.05171 5.13385 4.97228L4.30411 5.53043ZM4.24489 5.37575L3.25494 5.51717L2.5938 0.88916L3.58375 0.747739L4.5737 0.606318L5.23484 5.23433L4.24489 5.37575ZM3.58375 0.747739L3.58375 1.74774H2.82007V0.747739L2.82007 -0.252261L3.58375 -0.252261L3.58375 0.747739ZM2.82007 0.747739L3.81008 0.888737L3.15071 5.51852L2.1607 5.37752L1.17069 5.23652L1.83006 0.60674L2.82007 0.747739Z" fill="black" mask="url(#path-1-inside-1_5122_608)"/>
</svg>
