<svg width="17" height="17" viewBox="0 0 17 17" fill="none" xmlns="http://www.w3.org/2000/svg">
<path d="M16.5 15.25V6.75C16.5 6.59475 16.4639 6.44164 16.3944 6.30279C16.325 6.16393 16.2242 6.04315 16.1 5.95L9.1 0.7C8.9269 0.570178 8.71637 0.5 8.5 0.5C8.28363 0.5 8.0731 0.570178 7.9 0.7L0.9 5.95C0.775804 6.04315 0.675 6.16393 0.605573 6.30279C0.536145 6.44164 0.5 6.59475 0.5 6.75V15.25C0.5 15.5152 0.605357 15.7696 0.792893 15.9571C0.98043 16.1446 1.23478 16.25 1.5 16.25H5.5C5.76522 16.25 6.01957 16.1446 6.20711 15.9571C6.39464 15.7696 6.5 15.5152 6.5 15.25V12.25C6.5 11.9848 6.60536 11.7304 6.79289 11.5429C6.98043 11.3554 7.23478 11.25 7.5 11.25H9.5C9.76522 11.25 10.0196 11.3554 10.2071 11.5429C10.3946 11.7304 10.5 11.9848 10.5 12.25V15.25C10.5 15.5152 10.6054 15.7696 10.7929 15.9571C10.9804 16.1446 11.2348 16.25 11.5 16.25H15.5C15.7652 16.25 16.0196 16.1446 16.2071 15.9571C16.3946 15.7696 16.5 15.5152 16.5 15.25Z" stroke="#fff" stroke-linecap="round" stroke-linejoin="round"/>
</svg>
