<svg width="18" height="18" viewBox="0 0 18 18" fill="none" xmlns="http://www.w3.org/2000/svg">
<g clip-path="url(#clip0_4433_16095)">
<path d="M1.5 9.15294C1.5 7.43662 1.5 6.57846 1.8894 5.86706C2.2788 5.15566 2.99021 4.71414 4.41303 3.83109L5.91302 2.90015C7.41704 1.96672 8.16905 1.5 9 1.5C9.83095 1.5 10.583 1.96672 12.087 2.90015L13.587 3.83109C15.0098 4.71413 15.7212 5.15566 16.1106 5.86706C16.5 6.57846 16.5 7.43662 16.5 9.15294V10.2937C16.5 13.2194 16.5 14.6822 15.6213 15.5911C14.7426 16.5 13.3284 16.5 10.5 16.5H7.5C4.67157 16.5 3.25736 16.5 2.37868 15.5911C1.5 14.6822 1.5 13.2194 1.5 10.2937V9.15294Z" stroke="white" stroke-width="1.5"/>
<path d="M11.25 13.5H6.75" stroke="white" stroke-width="1.5" stroke-linecap="round"/>
</g>
<defs>
<clipPath id="clip0_4433_16095">
<rect width="18" height="18" fill="white"/>
</clipPath>
</defs>
</svg>
