<svg width="16" height="17" viewBox="0 0 16 17" fill="none" xmlns="http://www.w3.org/2000/svg">
<path d="M6.16781 3.75L6.61273 2.64C6.68776 2.45206 6.81977 2.29041 6.99148 2.17621C7.16318 2.06201 7.36656 2.0006 7.57499 2H8.42344C8.63187 2.0006 8.83526 2.06201 9.00696 2.17621C9.17866 2.29041 9.31068 2.45206 9.38571 2.64L9.83063 3.75L11.3413 4.59L12.5622 4.41C12.7655 4.38333 12.9724 4.41567 13.1567 4.50292C13.3409 4.59017 13.4942 4.72838 13.5969 4.9L14.0108 5.6C14.1169 5.77435 14.1657 5.97568 14.1509 6.17742C14.1362 6.37916 14.0584 6.57183 13.928 6.73L13.1727 7.66V9.34L13.9487 10.27C14.0791 10.4282 14.1569 10.6208 14.1716 10.8226C14.1864 11.0243 14.1376 11.2257 14.0315 11.4L13.6176 12.1C13.5148 12.2716 13.3616 12.4098 13.1774 12.4971C12.9931 12.5843 12.7862 12.6167 12.5829 12.59L11.362 12.41L9.85132 13.25L9.4064 14.36C9.33137 14.5479 9.19936 14.7096 9.02766 14.8238C8.85595 14.938 8.65257 14.9994 8.44414 15H7.57499C7.36656 14.9994 7.16318 14.938 6.99148 14.8238C6.81977 14.7096 6.68776 14.5479 6.61273 14.36L6.16781 13.25L4.65715 12.41L3.43621 12.59C3.23291 12.6167 3.02599 12.5843 2.84176 12.4971C2.65752 12.4098 2.50428 12.2716 2.40151 12.1L1.98764 11.4C1.88158 11.2257 1.83272 11.0243 1.8475 10.8226C1.86227 10.6208 1.94 10.4282 2.07041 10.27L2.82574 9.34V7.66L2.04972 6.73C1.91931 6.57183 1.84158 6.37916 1.8268 6.17742C1.81202 5.97568 1.86089 5.77435 1.96694 5.6L2.38082 4.9C2.48359 4.72838 2.63683 4.59017 2.82107 4.50292C3.0053 4.41567 3.21222 4.38333 3.41552 4.41L4.63646 4.59L6.16781 3.75ZM5.92983 8.5C5.92983 9.03043 6.14785 9.53914 6.53594 9.91421C6.92402 10.2893 7.45038 10.5 7.99922 10.5C8.54806 10.5 9.07441 10.2893 9.4625 9.91421C9.85059 9.53914 10.0686 9.03043 10.0686 8.5C10.0686 7.96957 9.85059 7.46086 9.4625 7.08579C9.07441 6.71071 8.54806 6.5 7.99922 6.5C7.45038 6.5 6.92402 6.71071 6.53594 7.08579C6.14785 7.46086 5.92983 7.96957 5.92983 8.5Z" stroke="white" stroke-linecap="round" stroke-linejoin="round"/>
</svg>
