<svg width="17" height="21" viewBox="0 0 17 21" fill="none" xmlns="http://www.w3.org/2000/svg">
<path d="M14.556 7.036L13.556 6.423C12.553 5.808 12.052 5.5 11.498 5.5C10.944 5.5 10.443 5.808 9.44005 6.423L8.44005 7.036C7.49105 7.618 7.01705 7.909 6.75805 8.378C6.49805 8.848 6.49805 9.413 6.49805 10.544V16.409C6.49805 18.338 6.49805 19.302 7.08405 19.901C7.67005 20.5 8.61205 20.5 10.498 20.5H12.498C14.384 20.5 15.326 20.5 15.912 19.9C16.498 19.302 16.498 18.338 16.498 16.41V10.544C16.498 9.413 16.498 8.847 16.238 8.378C15.978 7.909 15.505 7.618 14.556 7.036Z" stroke="white" stroke-linecap="round" stroke-linejoin="round"/>
<path d="M10.4988 5.60801C9.85985 4.99501 9.47885 4.67301 8.99585 4.55201C8.43585 4.41101 7.84785 4.56901 6.67085 4.88501L5.49885 5.19901C4.38585 5.49901 3.82885 5.64701 3.44285 6.01601C3.05585 6.38601 2.90585 6.91001 2.60685 7.95901L1.05285 13.397C0.542845 15.185 0.286846 16.079 0.720846 16.784C1.09285 17.389 2.58285 18.134 3.99985 18.5" stroke="white" stroke-linecap="round" stroke-linejoin="round"/>
<path d="M10.993 8.50001C11.834 7.94001 12.581 7.04301 13.045 5.92701C14.003 3.62201 13.392 1.25701 11.682 0.646006C9.97105 0.0340056 7.80705 1.40601 6.84905 3.71101C6.69364 4.08258 6.57605 4.46887 6.49805 4.86401" stroke="white" stroke-linecap="round"/>
</svg>
