<svg width="17" height="14" viewBox="0 0 17 14" fill="none" xmlns="http://www.w3.org/2000/svg">
<path d="M12.9444 13.5C12.9444 12.065 10.9542 10.902 8.5 10.902C6.04578 10.902 4.05556 12.065 4.05556 13.5M16.5 10.902C16.5 9.83684 15.4031 8.92148 13.8333 8.52053M0.5 10.902C0.5 9.83684 1.59689 8.92148 3.16667 8.52053M13.8333 5.04442C14.0967 4.81761 14.3114 4.54231 14.4651 4.23437C14.6189 3.92642 14.7086 3.5919 14.7292 3.25004C14.7498 2.90819 14.7008 2.56574 14.585 2.2424C14.4693 1.91906 14.289 1.6212 14.0547 1.36597C13.8204 1.11073 13.5365 0.903142 13.2196 0.755147C12.9026 0.607152 12.5587 0.521669 12.2077 0.503614C11.8567 0.485558 11.5055 0.535287 11.1743 0.64994C10.8431 0.764593 10.5384 0.941908 10.2778 1.17169M3.16667 5.04442C2.64427 4.58384 2.33019 3.94056 2.29304 3.2551C2.25589 2.56964 2.49869 1.89771 2.96841 1.3861C3.43812 0.874484 4.09657 0.56476 4.79992 0.524586C5.50327 0.484412 6.19436 0.717052 6.72222 1.17169M8.5 8.30403C7.79276 8.30403 7.11448 8.03031 6.61438 7.54309C6.11428 7.05588 5.83333 6.39507 5.83333 5.70604C5.83333 5.01701 6.11428 4.3562 6.61438 3.86899C7.11448 3.38177 7.79276 3.10805 8.5 3.10805C9.20724 3.10805 9.88552 3.38177 10.3856 3.86899C10.8857 4.3562 11.1667 5.01701 11.1667 5.70604C11.1667 6.39507 10.8857 7.05588 10.3856 7.54309C9.88552 8.03031 9.20724 8.30403 8.5 8.30403Z" stroke="white" stroke-linecap="round" stroke-linejoin="round"/>
</svg>
