<svg xmlns="http://www.w3.org/2000/svg" xmlns:xlink="http://www.w3.org/1999/xlink" width="40" zoomAndPan="magnify" viewBox="0 0 30 30.000001" height="40" preserveAspectRatio="xMidYMid meet" version="1.0"><defs><g/><clipPath id="7f5e39c854"><path d="M 0.484375 0 L 29.515625 0 L 29.515625 29.03125 L 0.484375 29.03125 Z M 0.484375 0 " clip-rule="nonzero"/></clipPath></defs><g clip-path="url(#7f5e39c854)"><path fill="#ffffff" d="M 0.484375 0 L 29.515625 0 L 29.515625 29.03125 L 0.484375 29.03125 Z M 0.484375 0 " fill-opacity="1" fill-rule="nonzero"/><path fill="#ffffff" d="M 0.484375 0 L 29.515625 0 L 29.515625 29.03125 L 0.484375 29.03125 Z M 0.484375 0 " fill-opacity="1" fill-rule="nonzero"/></g><g fill="#000000" fill-opacity="1"><g transform="translate(3.550066, 23.224128)"><g><path d="M 0.875 -19.9375 L 6.390625 -19.9375 C 7.804688 -19.9375 8.867188 -19.539062 9.578125 -18.75 C 10.296875 -17.96875 10.664062 -16.800781 10.6875 -15.25 L 10.734375 -5.921875 C 10.742188 -3.953125 10.398438 -2.472656 9.703125 -1.484375 C 9.003906 -0.492188 7.851562 0 6.25 0 L 0.875 0 Z M 5.59375 -3.53125 C 6.320312 -3.53125 6.6875 -3.882812 6.6875 -4.59375 L 6.6875 -14.890625 C 6.6875 -15.335938 6.648438 -15.671875 6.578125 -15.890625 C 6.515625 -16.117188 6.390625 -16.269531 6.203125 -16.34375 C 6.015625 -16.425781 5.726562 -16.46875 5.34375 -16.46875 L 4.90625 -16.46875 L 4.90625 -3.53125 Z M 5.59375 -3.53125 "/></g></g></g><g fill="#722f37" fill-opacity="1"><g transform="translate(15.004199, 23.224128)"><g><path d="M 0.875 -19.9375 L 6.390625 -19.9375 C 7.804688 -19.9375 8.867188 -19.539062 9.578125 -18.75 C 10.296875 -17.96875 10.664062 -16.800781 10.6875 -15.25 L 10.734375 -5.921875 C 10.742188 -3.953125 10.398438 -2.472656 9.703125 -1.484375 C 9.003906 -0.492188 7.851562 0 6.25 0 L 0.875 0 Z M 5.59375 -3.53125 C 6.320312 -3.53125 6.6875 -3.882812 6.6875 -4.59375 L 6.6875 -14.890625 C 6.6875 -15.335938 6.648438 -15.671875 6.578125 -15.890625 C 6.515625 -16.117188 6.390625 -16.269531 6.203125 -16.34375 C 6.015625 -16.425781 5.726562 -16.46875 5.34375 -16.46875 L 4.90625 -16.46875 L 4.90625 -3.53125 Z M 5.59375 -3.53125 "/></g></g></g></svg>